<svg width="24" height="24" viewBox="0 0 24 24" fill="none" xmlns="http://www.w3.org/2000/svg">
<path d="M7.07813 9.89062C7.07812 10.537 7.20543 11.177 7.45278 11.7741C7.70013 12.3713 8.06267 12.9139 8.51971 13.3709C8.97675 13.828 9.51933 14.1905 10.1165 14.4378C10.7136 14.6852 11.3537 14.8125 12 14.8125C12.6463 14.8125 13.2864 14.6852 13.8835 14.4378C14.4807 14.1905 15.0233 13.828 15.4803 13.3709C15.9373 12.9139 16.2999 12.3713 16.5472 11.7741C16.7946 11.177 16.9219 10.537 16.9219 9.89062C16.9219 9.24428 16.7946 8.60425 16.5472 8.0071C16.2999 7.40996 15.9373 6.86737 15.4803 6.41033C15.0233 5.9533 14.4807 5.59075 13.8835 5.34341C13.2864 5.09606 12.6463 4.96875 12 4.96875C11.3537 4.96875 10.7136 5.09606 10.1165 5.34341C9.51933 5.59075 8.97675 5.9533 8.51971 6.41033C8.06267 6.86737 7.70013 7.40996 7.45278 8.0071C7.20543 8.60425 7.07812 9.24428 7.07813 9.89062Z" stroke="#097FB5" stroke-width="1.75" stroke-linecap="round" stroke-linejoin="round"/>
<path d="M18.4809 20.3211C17.6317 19.4666 16.622 18.7885 15.5097 18.3257C14.3975 17.863 13.2047 17.6248 12 17.6248C10.7953 17.6248 9.6025 17.863 8.49024 18.3257C7.37798 18.7885 6.36821 19.4666 5.51904 20.3211" stroke="#097FB5" stroke-width="1.75" stroke-linecap="round" stroke-linejoin="round"/>
<path d="M1.45313 12C1.45312 13.385 1.72593 14.7565 2.25596 16.0361C2.78599 17.3157 3.56287 18.4784 4.54223 19.4578C5.5216 20.4371 6.68428 21.214 7.96389 21.744C9.24349 22.2741 10.615 22.5469 12 22.5469C13.385 22.5469 14.7565 22.2741 16.0361 21.744C17.3157 21.214 18.4784 20.4371 19.4578 19.4578C20.4371 18.4784 21.214 17.3157 21.744 16.0361C22.2741 14.7565 22.5469 13.385 22.5469 12C22.5469 10.615 22.2741 9.24349 21.744 7.96389C21.214 6.68428 20.4371 5.5216 19.4578 4.54223C18.4784 3.56287 17.3157 2.78599 16.0361 2.25596C14.7565 1.72593 13.385 1.45313 12 1.45312C10.615 1.45313 9.24349 1.72593 7.96389 2.25596C6.68428 2.78599 5.5216 3.56287 4.54223 4.54223C3.56287 5.5216 2.78599 6.68428 2.25596 7.96389C1.72593 9.24349 1.45312 10.615 1.45313 12Z" stroke="#097FB5" stroke-width="1.75" stroke-linecap="round" stroke-linejoin="round"/>
</svg>
