<svg width="46" height="48" viewBox="0 0 46 48" fill="none" xmlns="http://www.w3.org/2000/svg">
<path d="M36.571 48H0V0H36.571V48Z" fill="#C9DFED"/>
<path d="M4.5708 37.7144H31.999V43.4286H4.5708V37.7144Z" fill="white"/>
<path d="M4.5708 4.57153H31.999V10.2858H4.5708V4.57153Z" fill="#95C0DC"/>
<path d="M4.5708 13.7144H31.999V34.2858H4.5708V13.7144Z" fill="white"/>
<path d="M37.6828 27.0811C37.6828 29.8768 34.999 30.2123 34.5517 30.2123V31.7778H33.4334V30.2123C32.9861 30.2123 30.0786 29.8768 30.0786 26.5219H32.3151C32.3151 26.8574 32.3151 28.423 33.9925 28.423C35.4463 28.423 35.4463 27.3047 35.4463 27.0811C35.4463 24.6209 30.4141 25.6273 30.4141 21.7134C30.4141 19.365 32.5388 18.5822 33.5452 18.5822V16.9048H34.7753V18.5822C35.5581 18.694 37.6828 19.2532 37.6828 22.1607H35.4463C35.4463 21.4897 35.3344 20.2596 33.9925 20.2596C32.7624 20.3714 32.7624 21.4897 32.7624 21.7134C32.7624 24.0617 37.6828 23.1671 37.6828 27.0811Z" fill="white"/>
<ellipse cx="34.0801" cy="24.4799" rx="9.11988" ry="9.12" fill="white"/>
<path d="M34.2676 13.1028C28.1015 13.1028 23.085 18.1194 23.085 24.2855C23.085 30.4517 28.1015 35.4683 34.2676 35.4683C40.4337 35.4683 45.4502 30.4517 45.4502 24.2855C45.4502 18.1194 40.4337 13.1028 34.2676 13.1028ZM34.2676 17.6877C35.0704 17.6877 35.7213 18.3386 35.7213 19.1415C35.7213 19.9444 35.0704 20.5952 34.2676 20.5952C33.4647 20.5952 32.8138 19.9444 32.8138 19.1415C32.8138 18.3386 33.4647 17.6877 34.2676 17.6877ZM36.9514 30.3242H32.031C31.537 30.3242 31.1364 29.9237 31.1364 29.4296C31.1364 28.9355 31.537 28.535 32.031 28.535H33.5966V23.6146H32.702C32.2079 23.6146 31.8074 23.214 31.8074 22.7199C31.8074 22.2259 32.2079 21.8253 32.702 21.8253H34.4912C34.9853 21.8253 35.3858 22.2259 35.3858 22.7199V28.535H36.9514C37.4455 28.535 37.846 28.9355 37.846 29.4296C37.846 29.9237 37.4455 30.3242 36.9514 30.3242Z" fill="#FE8F01"/>
</svg>
