<svg width="72" height="72" viewBox="0 0 72 72" fill="none" xmlns="http://www.w3.org/2000/svg">
<g clip-path="url(#clip0_1_4545)">
<path d="M11.6401 13.7302L11.6402 13.7301C16.757 8.50442 22.996 5.0288 31.8259 4.73061L31.826 4.73061C43.7669 4.31834 52.4042 8.58573 56.6411 15.4858C60.8781 22.386 60.7349 31.9518 55.0447 42.1797C53.3797 45.1728 52.5486 47.4521 52.3036 49.1474C52.0585 50.8426 52.3977 51.9723 53.0988 52.6363C53.7977 53.2984 54.8279 53.4702 55.9049 53.3154C56.9838 53.1602 58.1286 52.6753 59.0824 51.9967L59.0827 51.9964C59.4592 51.7264 59.7696 51.5531 60.0113 51.4672C60.259 51.3792 60.4047 51.393 60.4816 51.4455C60.5543 51.4952 60.6099 51.6115 60.5923 51.8508C60.5752 52.0853 60.489 52.4062 60.3231 52.8133C59.9476 53.7168 59.187 54.7025 58.1 55.7038C57.014 56.7042 55.6075 57.7151 53.9481 58.6698C50.6292 60.5794 46.3057 62.2606 41.5279 63.1844C31.9716 65.0324 20.616 63.8485 11.8437 55.4305L11.8436 55.4304C4.45997 48.355 1.71161 40.6102 3.45405 31.8914C3.63555 30.984 3.82482 30.3206 3.99728 29.8936C4.08389 29.6792 4.16383 29.5306 4.23263 29.441C4.26711 29.3961 4.29477 29.3714 4.31416 29.3594C4.32286 29.3541 4.32818 29.3523 4.33075 29.3517C4.33356 29.3534 4.34035 29.3586 4.35024 29.3724C4.36636 29.3949 4.38487 29.4327 4.40268 29.4908C4.43822 29.6066 4.46454 29.7816 4.47587 30.0195C4.49845 30.4936 4.46054 31.1947 4.33694 32.1198C4.33693 32.1198 4.33693 32.1199 4.33692 32.1199L4.44646 32.1345C4.05645 34.9779 4.25865 38.1972 4.97488 40.7331L11.6401 13.7302ZM11.6401 13.7302C9.66287 15.7453 7.61013 19.2595 6.05468 23.33L6.05432 23.3309C5.70638 24.218 5.50956 24.8956 5.43433 25.3612C5.39657 25.5949 5.39066 25.7681 5.40791 25.885C5.42605 26.008 5.46327 26.0333 5.47535 26.0378C5.49224 26.0442 5.54584 26.0464 5.65601 25.9697C5.76007 25.8973 5.88952 25.7712 6.04109 25.5852C6.34328 25.2143 6.71831 24.6238 7.13932 23.8057L11.6401 13.7302Z" fill="white" stroke="#222222" stroke-width="1.85656"/>
<path d="M56.9986 37.7197C60.3229 40.2238 62.6113 41.0205 66.4128 42.7146C67.7396 43.3058 68.7291 43.2176 69.8456 44.1469C71.8472 45.813 72.448 47.9206 71.9463 50.4762C71.5427 52.5317 70.5148 53.5494 68.9146 54.9011C67.0684 56.4607 64.745 55.4036 63.1911 57.2546C61.5641 59.1926 62.3491 61.0865 60.9496 63.1947C58.9112 66.2652 56.6889 68.2922 53.0797 66.4307C50.6825 65.1943 52.3767 63.0431 52.418 60.3462C52.4486 58.3452 54.2833 56.7917 53.0012 55.2552C51.9481 53.9933 50.5423 54.4674 48.9118 54.2602C43.9849 53.634 40.3735 60.1285 36.4979 57.0227C34.0934 55.0958 34.1091 52.7452 33.4973 49.7252C32.3388 44.0069 33.257 40.1564 35.9702 34.9912C37.9806 31.1639 38.9232 26.7546 43.2451 26.6469C45.6368 26.5873 46.8461 27.7772 48.899 29.0059C52.8854 31.392 53.2876 34.9244 56.9986 37.7197Z" fill="#097FB5"/>
<path fill-rule="evenodd" clip-rule="evenodd" d="M44.3126 53.2598C35.1522 55.3137 33.6693 51.6154 32.2414 45.8159C30.4359 38.4821 34.3668 25.1447 42.8698 23.7715C48.2769 22.8982 50.1388 28.9 53.6364 32.0376C58.622 36.5101 62.0988 38.4522 67.9031 41.6055C72.0078 43.8354 70.2219 51.3988 66.1711 53.6678C63.97 54.9007 61.1127 53.8415 58.8168 53.5674C53.9979 52.9921 49.1226 52.1815 44.3126 53.2598V53.2598Z" stroke="#222222" stroke-width="1.85656" stroke-miterlimit="1.5" stroke-linecap="round" stroke-linejoin="round"/>
<path d="M33.8005 43.5836C33.656 37.2721 35.7924 27.762 42.9197 26.018C46.9521 25.318 48.7081 31.1578 49.0959 34.2042C49.9025 40.5417 46.7308 50.0572 39.5905 51.3704C35.3553 52.1495 33.8739 46.7894 33.8005 43.5836Z" stroke="#222222" stroke-width="1.85656" stroke-miterlimit="1.5" stroke-linecap="round" stroke-linejoin="round"/>
<path fill-rule="evenodd" clip-rule="evenodd" d="M41.4133 35.6816C42.9606 36.2728 42.3491 39.0251 41.8448 40.6954C41.6242 41.4261 40.7334 42.8824 40.0869 42.6493C38.0648 41.9203 39.6575 35.2536 41.4133 35.6816Z" stroke="#222222" stroke-width="1.85656" stroke-miterlimit="1.5" stroke-linecap="round" stroke-linejoin="round"/>
<path d="M56.855 53.3453C59.8538 51.4143 61.7593 46.5822 62.4544 43.2485C62.7708 41.7308 62.8925 40.0617 62.459 38.5503" stroke="#222222" stroke-width="1.85656" stroke-miterlimit="1.5" stroke-linecap="round" stroke-linejoin="round"/>
<path d="M67.535 46.6198C67.4088 47.7296 67.0712 48.8387 66.4137 49.7502" stroke="#222222" stroke-width="1.85655" stroke-miterlimit="1.5" stroke-linecap="round" stroke-linejoin="round"/>
<path d="M65.1722 45.4837C64.9594 46.6724 64.4709 47.7694 63.6568 48.7128" stroke="#222222" stroke-width="1.85656" stroke-miterlimit="1.5" stroke-linecap="round" stroke-linejoin="round"/>
<path d="M54.3822 53.0051C55.3824 53.0842 56.5862 53.2425 57.7243 53.3785C57.3218 54.3003 56.7588 55.4468 56.1081 56.2334C55.8291 56.5706 55.5325 56.9222 55.0972 57.0691C54.9241 57.1275 54.7312 57.1439 54.549 57.1414C54.0084 57.1343 52.6483 57.0708 52.5477 56.3593C52.4824 55.8971 52.8245 55.4007 53.0699 55.0326C53.5131 54.3676 53.9269 53.6839 54.3325 52.997" stroke="#222222" stroke-width="1.85656" stroke-miterlimit="1.5" stroke-linecap="round" stroke-linejoin="round"/>
<path d="M31.3846 52.552C28.8447 53.4473 26.278 54.2762 23.7693 55.2616C24.459 53.7756 24.6775 51.8349 25.06 50.2594C21.9067 50.1287 18.6877 50.0337 15.5536 49.7116C17.3739 47.7957 18.9664 45.297 20.4039 43.1141C17.3657 42.4914 14.3632 41.6585 11.3754 40.8357C14.2092 38.6026 17.0263 36.2605 20.0082 34.2343C17.7714 31.5895 15.6672 28.8215 13.3256 26.2693C16.9274 25.991 20.5177 25.5264 24.1209 25.2724C22.9047 22.3685 21.3997 19.5557 20.085 16.6953C24.1728 17.6654 28.1385 19.0582 32.2625 19.9051C32.1658 17.4951 32.0037 15.0892 32.043 12.6763C34.2148 14.5293 36.3614 16.3966 38.6446 18.1137C39.1088 16.7422 39.5847 15.3806 40.1099 14.0306C41.0187 16.0261 41.7313 18.1026 42.4316 20.1783" stroke="#fe8f01" stroke-width="1.85656" stroke-miterlimit="1.5" stroke-linecap="round" stroke-linejoin="round"/>
<path d="M57.6224 53.4281C57.2292 54.3623 56.6791 55.5237 56.0421 56.32C55.7687 56.6615 55.4782 57.0176 55.051 57.1657C54.8812 57.2246 54.6917 57.2408 54.5128 57.2379C54.1284 57.2318 53.3222 57.1947 52.8682 56.9008C52.6689 57.1417 52.4475 57.3946 52.2182 57.6563C51.1839 58.8374 49.9901 60.2006 49.9474 61.4776C49.9158 62.4202 50.8168 63.1547 51.6227 63.4629C53.3693 64.131 55.077 63.8149 56.5772 62.7277C59.2181 60.814 60.534 57.4098 61.4864 54.4213C61.4893 54.4123 61.4925 54.4024 61.4959 54.3918C61.5254 54.2997 61.5719 54.1548 61.5916 54.059C60.4131 53.8033 58.9243 53.5929 57.6224 53.4281Z" stroke="#222222" stroke-width="1.85656" stroke-miterlimit="1.5" stroke-linecap="round" stroke-linejoin="round"/>
<path d="M41.415 35.6495C42.9483 36.2701 42.3278 39.0118 41.816 40.6806C41.6055 41.3671 40.7993 42.6899 40.157 42.6731C40.1552 42.6788 40.1533 42.6845 40.1515 42.6902C41.5345 43.2946 42.6489 43.8881 43.7176 44.4571C44.678 44.9685 45.6014 45.4603 46.6494 45.9225C47.5187 44.5337 48.3741 42.1411 48.5358 41.4074C48.5697 41.2538 48.603 41.1048 48.6356 40.959C48.8939 39.8043 49.1085 38.8446 49.215 37.2578C48.2194 37.0369 47.1631 36.8393 46.0959 36.6398C44.5053 36.3423 42.8903 36.0403 41.415 35.6495Z" stroke="#222222" stroke-width="1.85656" stroke-miterlimit="1.5" stroke-linecap="round" stroke-linejoin="round"/>
</g>
<defs>
<clipPath id="clip0_1_4545">
<rect width="72" height="72" fill="white"/>
</clipPath>
</defs>
</svg>
