<svg width="24" height="24" viewBox="0 0 24 24" fill="none" xmlns="http://www.w3.org/2000/svg">
<g clip-path="url(#clip0_5_3108)">
<path d="M21.141 4.26599H2.859C2.48611 4.26599 2.12849 4.41412 1.86481 4.6778C1.60113 4.94148 1.453 5.2991 1.453 5.67199V21.141C1.453 21.5139 1.60113 21.8715 1.86481 22.1352C2.12849 22.3989 2.48611 22.547 2.859 22.547H21.14C21.5129 22.547 21.8705 22.3989 22.1342 22.1352C22.3979 21.8715 22.546 21.5139 22.546 21.141V5.67199C22.546 5.2991 22.3979 4.94148 22.1342 4.6778C21.8705 4.41412 21.5129 4.26599 21.14 4.26599H21.141Z" stroke="#097FB5" stroke-width="1.75" stroke-linecap="round" stroke-linejoin="round"/>
<path d="M1.453 9.89099H22.547" stroke="#097FB5" stroke-width="1.75" stroke-linecap="round" stroke-linejoin="round"/>
<path d="M7.07788 6.375V1.453" stroke="#097FB5" stroke-width="1.75" stroke-linecap="round" stroke-linejoin="round"/>
<path d="M16.9221 6.375V1.453" stroke="#097FB5" stroke-width="1.75" stroke-linecap="round" stroke-linejoin="round"/>
<path d="M6.02294 14.109C5.93296 14.1042 5.84825 14.0651 5.78625 13.9997C5.72425 13.9343 5.6897 13.8476 5.6897 13.7575C5.6897 13.6674 5.72425 13.5807 5.78625 13.5153C5.84825 13.4499 5.93296 13.4108 6.02294 13.406" stroke="#097FB5" stroke-width="1.75"/>
<path d="M6.02295 14.109C6.11293 14.1042 6.19764 14.0651 6.25964 13.9997C6.32164 13.9343 6.35619 13.8476 6.35619 13.7575C6.35619 13.6674 6.32164 13.5807 6.25964 13.5153C6.19764 13.4499 6.11293 13.4108 6.02295 13.406" stroke="#097FB5" stroke-width="1.75"/>
<path d="M6.02294 19.031C5.93296 19.0262 5.84825 18.9871 5.78625 18.9217C5.72425 18.8563 5.6897 18.7696 5.6897 18.6795C5.6897 18.5894 5.72425 18.5027 5.78625 18.4373C5.84825 18.3719 5.93296 18.3328 6.02294 18.328" stroke="#097FB5" stroke-width="1.75"/>
<path d="M6.02295 19.031C6.11293 19.0262 6.19764 18.9871 6.25964 18.9217C6.32164 18.8563 6.35619 18.7696 6.35619 18.6795C6.35619 18.5894 6.32164 18.5027 6.25964 18.4373C6.19764 18.3719 6.11293 18.3328 6.02295 18.328" stroke="#097FB5" stroke-width="1.75"/>
<path d="M12 14.109C11.91 14.1042 11.8253 14.0651 11.7633 13.9997C11.7013 13.9343 11.6667 13.8476 11.6667 13.7575C11.6667 13.6674 11.7013 13.5807 11.7633 13.5153C11.8253 13.4499 11.91 13.4108 12 13.406" stroke="#097FB5" stroke-width="1.75"/>
<path d="M12 14.109C12.09 14.1042 12.1747 14.0651 12.2367 13.9997C12.2987 13.9343 12.3332 13.8476 12.3332 13.7575C12.3332 13.6674 12.2987 13.5807 12.2367 13.5153C12.1747 13.4499 12.09 13.4108 12 13.406" stroke="#097FB5" stroke-width="1.75"/>
<path d="M12 19.031C11.91 19.0262 11.8253 18.9871 11.7633 18.9217C11.7013 18.8563 11.6667 18.7696 11.6667 18.6795C11.6667 18.5894 11.7013 18.5027 11.7633 18.4373C11.8253 18.3719 11.91 18.3328 12 18.328" stroke="#097FB5" stroke-width="1.75"/>
<path d="M12 19.031C12.09 19.0262 12.1747 18.9871 12.2367 18.9217C12.2987 18.8563 12.3332 18.7696 12.3332 18.6795C12.3332 18.5894 12.2987 18.5027 12.2367 18.4373C12.1747 18.3719 12.09 18.3328 12 18.328" stroke="#097FB5" stroke-width="1.75"/>
<path d="M17.977 14.109C17.8871 14.1042 17.8023 14.0651 17.7404 13.9997C17.6784 13.9343 17.6438 13.8476 17.6438 13.7575C17.6438 13.6674 17.6784 13.5807 17.7404 13.5153C17.8023 13.4499 17.8871 13.4108 17.977 13.406" stroke="#097FB5" stroke-width="1.75"/>
<path d="M17.9771 14.109C18.067 14.1042 18.1517 14.0651 18.2137 13.9997C18.2757 13.9343 18.3103 13.8476 18.3103 13.7575C18.3103 13.6674 18.2757 13.5807 18.2137 13.5153C18.1517 13.4499 18.067 13.4108 17.9771 13.406" stroke="#097FB5" stroke-width="1.75"/>
<path d="M17.977 19.031C17.8871 19.0262 17.8023 18.9871 17.7404 18.9217C17.6784 18.8563 17.6438 18.7696 17.6438 18.6795C17.6438 18.5894 17.6784 18.5027 17.7404 18.4373C17.8023 18.3719 17.8871 18.3328 17.977 18.328" stroke="#097FB5" stroke-width="1.75"/>
<path d="M17.9771 19.031C18.067 19.0262 18.1517 18.9871 18.2137 18.9217C18.2757 18.8563 18.3103 18.7696 18.3103 18.6795C18.3103 18.5894 18.2757 18.5027 18.2137 18.4373C18.1517 18.3719 18.067 18.3328 17.9771 18.328" stroke="#097FB5" stroke-width="1.75"/>
</g>
<defs>
<clipPath id="clip0_5_3108">
<rect width="24" height="24" fill="white"/>
</clipPath>
</defs>
</svg>
