<svg width="72" height="72" viewBox="0 0 72 72" fill="none" xmlns="http://www.w3.org/2000/svg">
<path fill-rule="evenodd" clip-rule="evenodd" d="M34.8574 44.5189C32.9998 43.1751 30.9279 42.0308 28.9783 40.8327C27.7892 40.102 26.6545 38.8806 25.3935 38.2786C20.6407 46.7217 15.7836 55.1697 11.8484 64.0043C14.7923 62.9434 18.4398 61.5794 20.9742 59.8104C21.5616 63.0465 22.8022 66.0925 23.5798 69.2659C26.7497 60.5986 31.7995 52.6991 35.0889 44.08" fill="#097FB5"/>
<path fill-rule="evenodd" clip-rule="evenodd" d="M50.9339 40.1014C48.6161 41.572 44.8332 43.8414 42.38 45.0919C43.5769 49.2449 50.4429 64.9874 52.4012 68.3545C53.0559 64.8693 53.7007 61.3282 54.4582 57.8621C57.9177 59.6103 60.9812 60.9045 64.7091 63.2324C63.8823 61.54 53.4669 44.0038 50.9339 40.1014Z" fill="#097FB5"/>
<path fill-rule="evenodd" clip-rule="evenodd" d="M49.2743 12.7649C47.8054 12.6882 46.3056 13.2082 45.2995 14.3501C46.1922 12.2327 44.3447 9.32507 42.5414 8.33576C39.4043 6.61436 34.2239 8.86488 33.8604 12.5238C30.969 7.05278 22.9803 9.69544 23.3091 15.7677C22.8187 15.4616 22.3431 15.2701 21.788 15.0826C16.6775 13.3558 13.587 20.8942 16.943 24.3113C12.5211 25.562 10.8232 33.2154 15.7561 34.9844C10.5181 37.8155 13.9427 47.7923 20.0913 45.7973C19.6838 47.5273 19.5983 49.6585 20.571 51.2284C22.1491 53.7754 26.2169 54.9426 28.6767 52.8677C28.6358 58.148 36.5401 58.9212 38.7078 54.7222C42.3783 59.3997 49.4253 57.5963 49.9422 51.4723C51.1657 51.9077 52.5555 52.284 53.849 51.9542C57.8683 50.9287 59.6559 46.0909 57.6164 42.6811C62.3314 41.9906 65.1912 33.762 58.416 30.7615C60.9053 28.7102 61.259 25.209 59.0171 22.0461C57.8339 20.3764 55.0917 20.0374 53.452 20.3103C54.1769 18.4756 54.2462 16.4265 53.065 14.7607" fill="#097FB5"/>
<path fill-rule="evenodd" clip-rule="evenodd" d="M30.2995 39.5062C28.442 38.1624 26.37 37.018 24.4204 35.82C23.2314 35.0892 22.0967 33.8678 20.8356 33.2659C16.0829 41.709 11.2258 50.1569 7.29053 58.9915C10.2345 57.9307 13.8819 56.5667 16.4163 54.7977C17.0037 58.0338 18.2443 61.0798 19.0219 64.2532C22.1918 55.5859 27.2416 47.6864 30.531 39.0673" fill="white"/>
<path d="M30.2995 39.5062C28.442 38.1624 26.37 37.018 24.4204 35.82C23.2314 35.0892 22.0967 33.8678 20.8356 33.2659C16.0829 41.709 11.2258 50.1569 7.29053 58.9915C10.2345 57.9307 13.8819 56.5667 16.4163 54.7977C17.0037 58.0338 18.2443 61.0798 19.0219 64.2532C22.1918 55.5859 27.2416 47.6864 30.531 39.0673" stroke="#222222" stroke-width="1.85143" stroke-miterlimit="1.5" stroke-linecap="round" stroke-linejoin="round"/>
<path fill-rule="evenodd" clip-rule="evenodd" d="M46.3767 35.0887C44.0588 36.5593 40.276 38.8287 37.8228 40.0792C39.0197 44.2322 45.8857 59.9747 47.844 63.3419C48.4987 59.8567 49.1435 56.3155 49.901 52.8494C53.3605 54.5976 56.424 55.8918 60.1519 58.2197C59.3251 56.5273 48.9096 38.9912 46.3767 35.0887Z" fill="white" stroke="#222222" stroke-width="1.85143" stroke-miterlimit="1.5" stroke-linecap="round" stroke-linejoin="round"/>
<path fill-rule="evenodd" clip-rule="evenodd" d="M44.7173 7.75217C43.2483 7.67547 41.7486 8.19553 40.7425 9.33738C41.6351 7.22 39.7877 4.31238 37.9843 3.32306C34.8473 1.60167 29.6668 3.85218 29.3034 7.51106C26.412 2.04009 18.4233 4.68274 18.7521 10.755C18.2616 10.4489 17.7861 10.2574 17.231 10.0699C12.1205 8.34314 9.02996 15.8815 12.386 19.2986C7.96403 20.5493 6.26616 28.2027 11.199 29.9717C5.96108 32.8028 9.38564 42.7796 15.5343 40.7846C15.1267 42.5146 15.0413 44.6458 16.014 46.2157C17.5921 48.7627 21.6599 49.9299 24.1197 47.855C24.0788 53.1353 31.9831 53.9085 34.1507 49.7095C37.8213 54.387 44.8682 52.5836 45.3852 46.4596C46.6087 46.895 47.9984 47.2713 49.2919 46.9415C53.3113 45.916 55.0989 41.0782 53.0594 37.6684C57.7744 36.9779 60.6342 28.7493 53.859 25.7488C56.3483 23.6975 56.702 20.1964 54.4601 17.0334C53.2768 15.3637 50.5347 15.0247 48.895 15.2976C49.6199 13.4629 49.6891 11.4138 48.508 9.74802" fill="white"/>
<path d="M44.7173 7.75217C43.2483 7.67547 41.7486 8.19553 40.7425 9.33738C41.6351 7.22 39.7877 4.31238 37.9843 3.32306C34.8473 1.60167 29.6668 3.85218 29.3034 7.51106C26.412 2.04009 18.4233 4.68274 18.7521 10.755C18.2616 10.4489 17.7861 10.2574 17.231 10.0699C12.1205 8.34314 9.02996 15.8815 12.386 19.2986C7.96403 20.5493 6.26616 28.2027 11.199 29.9717C5.96108 32.8028 9.38564 42.7796 15.5343 40.7846C15.1267 42.5146 15.0413 44.6458 16.014 46.2157C17.5921 48.7627 21.6599 49.9299 24.1197 47.855C24.0788 53.1353 31.9831 53.9085 34.1507 49.7095C37.8213 54.387 44.8682 52.5836 45.3852 46.4596C46.6087 46.895 47.9984 47.2713 49.2919 46.9415C53.3113 45.916 55.0989 41.0782 53.0594 37.6684C57.7744 36.9779 60.6342 28.7493 53.859 25.7488C56.3483 23.6975 56.702 20.1964 54.4601 17.0334C53.2768 15.3637 50.5347 15.0247 48.895 15.2976C49.6199 13.4629 49.6891 11.4138 48.508 9.74802" stroke="#222222" stroke-width="1.85143" stroke-miterlimit="1.5" stroke-linecap="round" stroke-linejoin="round"/>
<path d="M37.0405 12.5059C29.8116 9.149 19.8346 13.7635 17.2362 21.2482C14.1954 30.0076 16.3945 39.1361 25.4147 43.3616C32.0825 46.4851 40.6508 45.4466 45.8833 40.1369C53.8899 32.0118 51.1666 19.2288 41.4788 14.4575" stroke="#222222" stroke-width="1.85143" stroke-miterlimit="1.5" stroke-linecap="round" stroke-linejoin="round"/>
<path d="M27.7971 24.6076C29.9061 23.0549 31.8128 21.3186 32.8097 19.1393" stroke="#fe8f01" stroke-width="1.85143" stroke-miterlimit="1.5" stroke-linecap="round" stroke-linejoin="round"/>
<path fill-rule="evenodd" clip-rule="evenodd" d="M32.9193 19.1393C32.4414 24.3032 33.7181 29.475 33.0852 34.633L32.9193 19.1393Z" fill="white"/>
<path d="M32.9193 19.1393C32.4414 24.3032 33.7181 29.475 33.0852 34.633" stroke="#fe8f01" stroke-width="1.85143" stroke-miterlimit="1.5" stroke-linecap="round" stroke-linejoin="round"/>
<path fill-rule="evenodd" clip-rule="evenodd" d="M27.3419 35.0886C31.2651 34.7517 35.2994 34.9928 39.19 34.6329L27.3419 35.0886Z" fill="white"/>
<path d="M27.3419 35.0886C31.2651 34.7517 35.2994 34.9928 39.19 34.6329" stroke="#fe8f01" stroke-width="1.85143" stroke-miterlimit="1.5" stroke-linecap="round" stroke-linejoin="round"/>
</svg>
