<svg width="24" height="24" viewBox="0 0 24 24" fill="none" xmlns="http://www.w3.org/2000/svg">
<path d="M4.26611 7.07788H14.1101" stroke="white" stroke-width="1.75" stroke-linecap="round" stroke-linejoin="round"/>
<path d="M4.26611 11.2971H14.1101" stroke="white" stroke-width="1.75" stroke-linecap="round" stroke-linejoin="round"/>
<path d="M4.26611 15.5161H9.18811" stroke="white" stroke-width="1.75" stroke-linecap="round" stroke-linejoin="round"/>
<path d="M7.78088 19.7339H2.85888C2.48599 19.7339 2.12836 19.5857 1.86469 19.3221C1.60101 19.0584 1.45288 18.7008 1.45288 18.3279V2.85888C1.45288 2.48599 1.60101 2.12836 1.86469 1.86469C2.12836 1.60101 2.48599 1.45288 2.85888 1.45288H12.8239C13.1967 1.45298 13.5543 1.60118 13.8179 1.86488L16.5099 4.55688C16.7736 4.82048 16.9218 5.17803 16.9219 5.55088V8.48388" stroke="white" stroke-width="1.75" stroke-linecap="round" stroke-linejoin="round"/>
<path d="M17.8906 14V21.63" stroke="white" stroke-width="1.75" stroke-linecap="round" stroke-linejoin="round"/>
<path d="M14 17.9219H21.63" stroke="white" stroke-width="1.75" stroke-linecap="round" stroke-linejoin="round"/>
</svg>
