<svg width="179" height="31" viewBox="0 0 179 31" fill="none" xmlns="http://www.w3.org/2000/svg">
<path d="M124.009 27.0908C103.74 20.3934 81.5846 25.2881 61.3901 26.7418C55.5833 27.1601 49.6846 28.7006 43.8545 28.3587C43.0941 28.3144 39.7784 28.1658 39.1026 26.7238C39.0144 26.5362 41.5632 25.6861 42.8032 25.3168C45.2142 24.5987 47.6303 24.0446 50.038 23.2915C56.3678 21.3124 62.8432 20.218 69.2654 19.1925C85.7512 16.5615 115.145 9.26778 131.662 17.3494C132.48 17.7498 129.982 17.3391 129.142 17.3309C127.761 17.3181 126.38 17.2761 124.999 17.2529C120.494 17.1783 115.943 16.9138 111.45 17.1535C96.9687 17.9243 82.3878 17.4208 67.9377 18.9178C63.5898 19.3687 59.2673 20.1259 54.9153 20.5205C52.3943 20.749 52.5118 20.8568 49.8953 20.8014C48.7609 20.7773 45.6449 21.491 46.4941 20.2459C47.9896 18.0523 52.9378 18.3986 54.8272 17.8908C63.454 15.5745 72.0362 12.6517 80.73 10.9262C103.022 6.50189 125.853 5.62532 148.388 6.26483C157.607 6.52641 166.808 3.80877 176.037 5.37091C153.63 1.20772 130.564 2.79685 108.231 3.79104C83.0856 4.91045 57.9631 5.8766 32.8465 7.75798C22.5353 8.5301 12.5483 12.3469 2.18166 12.4902" stroke="white" stroke-width="4.05049" stroke-miterlimit="1.5" stroke-linecap="round" stroke-linejoin="round"/>
</svg>
